<?xml version="1.0" standalone="no"?>
<!DOCTYPE svg PUBLIC "-//W3C//DTD SVG 1.1//EN" "http://www.w3.org/Graphics/SVG/1.1/DTD/svg11.dtd">
<svg t="1743388602008" class="icon" viewBox="0 0 1024 1024" version="1.1" xmlns="http://www.w3.org/2000/svg" p-id="2492" xmlns:xlink="http://www.w3.org/1999/xlink" width="200" height="200">
  <path fill="#ff6a00" stroke="#ff6a00" d="M767.6 735.6c-57.2 0-114.4-21.6-158-65.2-0.4-0.4-0.8-0.8-1.2-1.6l-240-270.4c-62.4-61.6-162.8-61.2-224.8 0.8-30 30-46.8 70-46.8 112.8s16.4 82.8 46.8 112.8c62 62 162.8 62.4 225.2 0.8l34-38.4c11.6-13.2 32-14.4 45.2-2.8 13.2 11.6 14.4 32 2.8 45.2l-34.8 39.2c-0.4 0.4-0.8 0.8-1.2 1.6-87.2 87.2-229.2 86.8-316.4-0.4C55.6 627.6 32.4 571.6 32.8 512S56 396 98.4 353.6c87.2-86.8 228.8-86.8 316 0 0.4 0.4 0.8 0.8 1.2 1.6l240 270.4c30 29.6 70 46 112 46 42.8 0 82.8-16.8 112.8-46.8 30-30 46.8-70.4 46.8-112.8 0-42.8-16.8-82.8-46.8-112.8-62-62-162.8-62-224.8-0.8l-34 38.4c-11.6 13.2-32 14.4-45.2 2.8-13.2-11.6-14.4-32-2.8-45.2l34.8-39.2c0.4-0.4 0.8-0.8 1.2-1.6 87.2-86.8 228.8-86.8 316 0C968 396 991.2 452 991.2 512c0 59.6-23.2 116-65.2 158-43.6 43.6-100.8 65.6-158.4 65.6z" p-id="2493"></path>
</svg>