<svg xmlns="http://www.w3.org/2000/svg" width="32" height="32" viewBox="0 0 24 24" fill="none" stroke="#3eaf7c" stroke-width="2" stroke-linecap="round" stroke-linejoin="round">
  <path d="M12 2l.642.005.643.022.643.05.608.085.607.121.535.176.535.233.43.29.43.347.323.403.323.46.217.517.216.573.074.627.073.684v.684l-.073.684-.074.627-.216.573-.217.517-.323.46-.323.403-.43.347-.43.29-.535.233-.535.176-.607.121-.608.085-.643.05-.643.022L12 22l-.642-.005-.643-.022-.643-.05-.608-.085-.607-.121-.535-.176-.535-.233-.43-.29-.43-.347-.323-.403-.323-.46-.217-.517-.216-.573-.074-.627-.073-.684v-.684l.073-.684.074-.627.216-.573.217-.517.323-.46.323-.403.43-.347.43-.29.535-.233.535-.176.607-.121.608-.085.643-.05.643-.022L12 2z"></path>
</svg>
